<svg width="146" height="22" viewBox="0 0 146 22" fill="none" xmlns="http://www.w3.org/2000/svg">
<path d="M5.058 4.112H7.83L12.672 17H9.99L8.928 13.922H3.96L2.898 17H0.216L5.058 4.112ZM8.136 11.69L6.984 8.468L6.516 6.902H6.372L5.904 8.468L4.752 11.69H8.136ZM21.9991 14.75C21.6151 15.494 21.0751 16.106 20.3791 16.586C19.6951 17.054 18.8371 17.288 17.8051 17.288C17.1211 17.288 16.4911 17.174 15.9151 16.946C15.3511 16.706 14.8591 16.376 14.4391 15.956C14.0311 15.536 13.7071 15.044 13.4671 14.48C13.2391 13.904 13.1251 13.274 13.1251 12.59C13.1251 11.906 13.2391 11.276 13.4671 10.7C13.7071 10.124 14.0311 9.632 14.4391 9.224C14.8591 8.804 15.3511 8.48 15.9151 8.252C16.4911 8.012 17.1211 7.892 17.8051 7.892C18.8251 7.892 19.6831 8.126 20.3791 8.594C21.0751 9.062 21.5851 9.668 21.9091 10.412L19.7491 11.312C19.5451 10.904 19.2811 10.598 18.9571 10.394C18.6451 10.178 18.2491 10.07 17.7691 10.07C17.4571 10.07 17.1631 10.13 16.8871 10.25C16.6111 10.37 16.3651 10.538 16.1491 10.754C15.9451 10.97 15.7831 11.234 15.6631 11.546C15.5431 11.858 15.4831 12.206 15.4831 12.59C15.4831 12.974 15.5431 13.322 15.6631 13.634C15.7831 13.946 15.9451 14.21 16.1491 14.426C16.3651 14.642 16.6111 14.81 16.8871 14.93C17.1631 15.05 17.4571 15.11 17.7691 15.11C18.2611 15.11 18.6751 15.002 19.0111 14.786C19.3591 14.558 19.6351 14.234 19.8391 13.814L21.9991 14.75ZM23.3498 8.18H25.5638V9.404H25.7078C25.8158 9.188 25.9598 8.99 26.1398 8.81C26.3198 8.63 26.5178 8.474 26.7338 8.342C26.9618 8.21 27.2018 8.108 27.4538 8.036C27.7178 7.964 27.9758 7.928 28.2278 7.928C28.5398 7.928 28.8038 7.958 29.0198 8.018C29.2478 8.078 29.4398 8.156 29.5958 8.252L28.9658 10.394C28.8218 10.322 28.6598 10.268 28.4798 10.232C28.3118 10.184 28.1018 10.16 27.8498 10.16C27.5258 10.16 27.2318 10.226 26.9678 10.358C26.7038 10.478 26.4758 10.652 26.2838 10.88C26.1038 11.108 25.9598 11.378 25.8518 11.69C25.7558 11.99 25.7078 12.32 25.7078 12.68V17H23.3498V8.18ZM34.311 7.892C34.995 7.892 35.619 8.012 36.183 8.252C36.759 8.48 37.251 8.804 37.659 9.224C38.079 9.632 38.403 10.124 38.631 10.7C38.871 11.276 38.991 11.906 38.991 12.59C38.991 13.274 38.871 13.904 38.631 14.48C38.403 15.056 38.079 15.554 37.659 15.974C37.251 16.382 36.759 16.706 36.183 16.946C35.619 17.174 34.995 17.288 34.311 17.288C33.627 17.288 32.997 17.174 32.421 16.946C31.857 16.706 31.365 16.382 30.945 15.974C30.537 15.554 30.213 15.056 29.973 14.48C29.745 13.904 29.631 13.274 29.631 12.59C29.631 11.906 29.745 11.276 29.973 10.7C30.213 10.124 30.537 9.632 30.945 9.224C31.365 8.804 31.857 8.48 32.421 8.252C32.997 8.012 33.627 7.892 34.311 7.892ZM34.311 15.11C34.611 15.11 34.899 15.056 35.175 14.948C35.463 14.828 35.715 14.66 35.931 14.444C36.147 14.228 36.315 13.964 36.435 13.652C36.567 13.34 36.633 12.986 36.633 12.59C36.633 12.194 36.567 11.84 36.435 11.528C36.315 11.216 36.147 10.952 35.931 10.736C35.715 10.52 35.463 10.358 35.175 10.25C34.899 10.13 34.611 10.07 34.311 10.07C33.999 10.07 33.705 10.13 33.429 10.25C33.153 10.358 32.907 10.52 32.691 10.736C32.475 10.952 32.301 11.216 32.169 11.528C32.049 11.84 31.989 12.194 31.989 12.59C31.989 12.986 32.049 13.34 32.169 13.652C32.301 13.964 32.475 14.228 32.691 14.444C32.907 14.66 33.153 14.828 33.429 14.948C33.705 15.056 33.999 15.11 34.311 15.11ZM43.9102 17.288C43.3342 17.288 42.8182 17.216 42.3622 17.072C41.9182 16.928 41.5282 16.742 41.1922 16.514C40.8682 16.274 40.5922 16.004 40.3642 15.704C40.1362 15.392 39.9622 15.08 39.8422 14.768L41.9482 13.868C42.1522 14.324 42.4222 14.666 42.7582 14.894C43.1062 15.11 43.4902 15.218 43.9102 15.218C44.3422 15.218 44.6842 15.14 44.9362 14.984C45.1882 14.828 45.3142 14.642 45.3142 14.426C45.3142 14.186 45.2062 13.994 44.9902 13.85C44.7862 13.694 44.4262 13.556 43.9102 13.436L42.6682 13.166C42.3922 13.106 42.1042 13.01 41.8042 12.878C41.5162 12.746 41.2522 12.578 41.0122 12.374C40.7722 12.17 40.5742 11.924 40.4182 11.636C40.2622 11.348 40.1842 11.012 40.1842 10.628C40.1842 10.196 40.2742 9.812 40.4542 9.476C40.6462 9.14 40.9042 8.858 41.2282 8.63C41.5522 8.39 41.9302 8.21 42.3622 8.09C42.8062 7.958 43.2802 7.892 43.7842 7.892C44.6242 7.892 45.3742 8.06 46.0342 8.396C46.6942 8.72 47.1802 9.242 47.4922 9.962L45.4582 10.79C45.2902 10.442 45.0442 10.19 44.7202 10.034C44.3962 9.878 44.0722 9.8 43.7482 9.8C43.4122 9.8 43.1182 9.872 42.8662 10.016C42.6142 10.148 42.4882 10.322 42.4882 10.538C42.4882 10.742 42.5902 10.904 42.7942 11.024C43.0102 11.144 43.2982 11.252 43.6582 11.348L45.0082 11.672C45.9082 11.888 46.5742 12.236 47.0062 12.716C47.4502 13.184 47.6722 13.742 47.6722 14.39C47.6722 14.774 47.5822 15.14 47.4022 15.488C47.2222 15.836 46.9642 16.148 46.6282 16.424C46.3042 16.688 45.9082 16.898 45.4402 17.054C44.9842 17.21 44.4742 17.288 43.9102 17.288ZM52.6113 17.288C52.0353 17.288 51.5193 17.216 51.0633 17.072C50.6193 16.928 50.2293 16.742 49.8933 16.514C49.5693 16.274 49.2933 16.004 49.0653 15.704C48.8373 15.392 48.6633 15.08 48.5433 14.768L50.6493 13.868C50.8533 14.324 51.1233 14.666 51.4593 14.894C51.8073 15.11 52.1913 15.218 52.6113 15.218C53.0433 15.218 53.3853 15.14 53.6373 14.984C53.8893 14.828 54.0153 14.642 54.0153 14.426C54.0153 14.186 53.9073 13.994 53.6913 13.85C53.4873 13.694 53.1273 13.556 52.6113 13.436L51.3693 13.166C51.0933 13.106 50.8053 13.01 50.5053 12.878C50.2173 12.746 49.9533 12.578 49.7133 12.374C49.4733 12.17 49.2753 11.924 49.1193 11.636C48.9633 11.348 48.8853 11.012 48.8853 10.628C48.8853 10.196 48.9753 9.812 49.1553 9.476C49.3473 9.14 49.6053 8.858 49.9293 8.63C50.2533 8.39 50.6313 8.21 51.0633 8.09C51.5073 7.958 51.9813 7.892 52.4853 7.892C53.3253 7.892 54.0753 8.06 54.7353 8.396C55.3953 8.72 55.8813 9.242 56.1933 9.962L54.1593 10.79C53.9913 10.442 53.7453 10.19 53.4213 10.034C53.0973 9.878 52.7733 9.8 52.4493 9.8C52.1133 9.8 51.8193 9.872 51.5673 10.016C51.3153 10.148 51.1893 10.322 51.1893 10.538C51.1893 10.742 51.2913 10.904 51.4953 11.024C51.7113 11.144 51.9993 11.252 52.3593 11.348L53.7093 11.672C54.6093 11.888 55.2753 12.236 55.7073 12.716C56.1513 13.184 56.3733 13.742 56.3733 14.39C56.3733 14.774 56.2833 15.14 56.1033 15.488C55.9233 15.836 55.6653 16.148 55.3293 16.424C55.0053 16.688 54.6093 16.898 54.1413 17.054C53.6853 17.21 53.1753 17.288 52.6113 17.288ZM64.0789 17V6.416H60.4789V4.112H70.1089V6.416H66.5089V17H64.0789ZM71.549 4.112H73.907V7.73L73.763 9.332H73.907C74.159 8.912 74.519 8.57 74.987 8.306C75.467 8.03 76.001 7.892 76.589 7.892C77.729 7.892 78.569 8.228 79.109 8.9C79.661 9.572 79.937 10.49 79.937 11.654V17H77.579V11.942C77.579 11.33 77.435 10.868 77.147 10.556C76.859 10.232 76.457 10.07 75.941 10.07C75.617 10.07 75.329 10.142 75.077 10.286C74.825 10.418 74.609 10.604 74.429 10.844C74.261 11.084 74.129 11.366 74.033 11.69C73.949 12.002 73.907 12.338 73.907 12.698V17H71.549V4.112ZM90.237 14.876C89.829 15.596 89.277 16.178 88.581 16.622C87.897 17.066 87.057 17.288 86.061 17.288C85.389 17.288 84.765 17.174 84.189 16.946C83.625 16.706 83.133 16.376 82.713 15.956C82.293 15.536 81.963 15.044 81.723 14.48C81.495 13.904 81.381 13.274 81.381 12.59C81.381 11.954 81.495 11.354 81.723 10.79C81.951 10.214 82.269 9.716 82.677 9.296C83.085 8.864 83.565 8.522 84.117 8.27C84.681 8.018 85.299 7.892 85.971 7.892C86.679 7.892 87.309 8.012 87.861 8.252C88.413 8.48 88.875 8.804 89.247 9.224C89.619 9.632 89.901 10.118 90.093 10.682C90.285 11.246 90.381 11.858 90.381 12.518C90.381 12.602 90.381 12.674 90.381 12.734C90.369 12.806 90.363 12.872 90.363 12.932C90.351 12.992 90.345 13.058 90.345 13.13H83.703C83.751 13.49 83.847 13.802 83.991 14.066C84.147 14.318 84.333 14.534 84.549 14.714C84.777 14.882 85.023 15.008 85.287 15.092C85.551 15.164 85.821 15.2 86.097 15.2C86.637 15.2 87.081 15.08 87.429 14.84C87.789 14.588 88.071 14.276 88.275 13.904L90.237 14.876ZM88.095 11.456C88.083 11.3 88.029 11.126 87.933 10.934C87.849 10.742 87.717 10.562 87.537 10.394C87.369 10.226 87.153 10.088 86.889 9.98C86.637 9.872 86.331 9.818 85.971 9.818C85.467 9.818 85.023 9.962 84.639 10.25C84.255 10.538 83.985 10.94 83.829 11.456H88.095ZM101.898 9.926H108.216C108.252 10.07 108.282 10.244 108.306 10.448C108.33 10.652 108.342 10.856 108.342 11.06C108.342 11.888 108.216 12.668 107.964 13.4C107.712 14.132 107.316 14.786 106.776 15.362C106.2 15.974 105.51 16.448 104.706 16.784C103.902 17.12 102.984 17.288 101.952 17.288C101.016 17.288 100.134 17.12 99.3064 16.784C98.4784 16.448 97.7584 15.98 97.1464 15.38C96.5344 14.78 96.0484 14.072 95.6884 13.256C95.3284 12.428 95.1484 11.528 95.1484 10.556C95.1484 9.584 95.3284 8.69 95.6884 7.874C96.0484 7.046 96.5344 6.332 97.1464 5.732C97.7584 5.132 98.4784 4.664 99.3064 4.328C100.134 3.992 101.016 3.824 101.952 3.824C102.996 3.824 103.926 4.004 104.742 4.364C105.57 4.724 106.278 5.222 106.866 5.858L105.192 7.496C104.772 7.052 104.304 6.716 103.788 6.488C103.272 6.248 102.654 6.128 101.934 6.128C101.346 6.128 100.788 6.236 100.26 6.452C99.7324 6.656 99.2704 6.95 98.8744 7.334C98.4784 7.718 98.1604 8.186 97.9204 8.738C97.6924 9.278 97.5784 9.884 97.5784 10.556C97.5784 11.228 97.6924 11.84 97.9204 12.392C98.1604 12.932 98.4784 13.394 98.8744 13.778C99.2824 14.162 99.7504 14.462 100.278 14.678C100.806 14.882 101.37 14.984 101.97 14.984C102.654 14.984 103.23 14.888 103.698 14.696C104.178 14.492 104.586 14.234 104.922 13.922C105.162 13.706 105.366 13.436 105.534 13.112C105.714 12.776 105.852 12.404 105.948 11.996H101.898V9.926ZM110.063 17V4.112H112.421V17H110.063ZM118.528 7.892C119.212 7.892 119.836 8.012 120.4 8.252C120.976 8.48 121.468 8.804 121.876 9.224C122.296 9.632 122.62 10.124 122.848 10.7C123.088 11.276 123.208 11.906 123.208 12.59C123.208 13.274 123.088 13.904 122.848 14.48C122.62 15.056 122.296 15.554 121.876 15.974C121.468 16.382 120.976 16.706 120.4 16.946C119.836 17.174 119.212 17.288 118.528 17.288C117.844 17.288 117.214 17.174 116.638 16.946C116.074 16.706 115.582 16.382 115.162 15.974C114.754 15.554 114.43 15.056 114.19 14.48C113.962 13.904 113.848 13.274 113.848 12.59C113.848 11.906 113.962 11.276 114.19 10.7C114.43 10.124 114.754 9.632 115.162 9.224C115.582 8.804 116.074 8.48 116.638 8.252C117.214 8.012 117.844 7.892 118.528 7.892ZM118.528 15.11C118.828 15.11 119.116 15.056 119.392 14.948C119.68 14.828 119.932 14.66 120.148 14.444C120.364 14.228 120.532 13.964 120.652 13.652C120.784 13.34 120.85 12.986 120.85 12.59C120.85 12.194 120.784 11.84 120.652 11.528C120.532 11.216 120.364 10.952 120.148 10.736C119.932 10.52 119.68 10.358 119.392 10.25C119.116 10.13 118.828 10.07 118.528 10.07C118.216 10.07 117.922 10.13 117.646 10.25C117.37 10.358 117.124 10.52 116.908 10.736C116.692 10.952 116.518 11.216 116.386 11.528C116.266 11.84 116.206 12.194 116.206 12.59C116.206 12.986 116.266 13.34 116.386 13.652C116.518 13.964 116.692 14.228 116.908 14.444C117.124 14.66 117.37 14.828 117.646 14.948C117.922 15.056 118.216 15.11 118.528 15.11ZM124.635 4.112H126.993V7.982L126.849 9.242H126.993C127.209 8.87 127.545 8.552 128.001 8.288C128.457 8.024 129.021 7.892 129.693 7.892C130.257 7.892 130.791 8.012 131.295 8.252C131.811 8.48 132.261 8.804 132.645 9.224C133.041 9.632 133.353 10.124 133.581 10.7C133.809 11.276 133.923 11.906 133.923 12.59C133.923 13.274 133.809 13.904 133.581 14.48C133.353 15.056 133.041 15.554 132.645 15.974C132.261 16.382 131.811 16.706 131.295 16.946C130.791 17.174 130.257 17.288 129.693 17.288C129.021 17.288 128.457 17.156 128.001 16.892C127.545 16.628 127.209 16.31 126.993 15.938H126.849V17H124.635V4.112ZM129.207 15.11C129.519 15.11 129.813 15.05 130.089 14.93C130.377 14.81 130.629 14.642 130.845 14.426C131.061 14.21 131.235 13.946 131.367 13.634C131.499 13.322 131.565 12.974 131.565 12.59C131.565 12.206 131.499 11.858 131.367 11.546C131.235 11.234 131.061 10.97 130.845 10.754C130.629 10.538 130.377 10.37 130.089 10.25C129.813 10.13 129.519 10.07 129.207 10.07C128.895 10.07 128.595 10.13 128.307 10.25C128.031 10.358 127.785 10.52 127.569 10.736C127.353 10.952 127.179 11.216 127.047 11.528C126.915 11.84 126.849 12.194 126.849 12.59C126.849 12.986 126.915 13.34 127.047 13.652C127.179 13.964 127.353 14.228 127.569 14.444C127.785 14.66 128.031 14.828 128.307 14.948C128.595 15.056 128.895 15.11 129.207 15.11ZM143.78 14.876C143.372 15.596 142.82 16.178 142.124 16.622C141.44 17.066 140.6 17.288 139.604 17.288C138.932 17.288 138.308 17.174 137.732 16.946C137.168 16.706 136.676 16.376 136.256 15.956C135.836 15.536 135.506 15.044 135.266 14.48C135.038 13.904 134.924 13.274 134.924 12.59C134.924 11.954 135.038 11.354 135.266 10.79C135.494 10.214 135.812 9.716 136.22 9.296C136.628 8.864 137.108 8.522 137.66 8.27C138.224 8.018 138.842 7.892 139.514 7.892C140.222 7.892 140.852 8.012 141.404 8.252C141.956 8.48 142.418 8.804 142.79 9.224C143.162 9.632 143.444 10.118 143.636 10.682C143.828 11.246 143.924 11.858 143.924 12.518C143.924 12.602 143.924 12.674 143.924 12.734C143.912 12.806 143.906 12.872 143.906 12.932C143.894 12.992 143.888 13.058 143.888 13.13H137.246C137.294 13.49 137.39 13.802 137.534 14.066C137.69 14.318 137.876 14.534 138.092 14.714C138.32 14.882 138.566 15.008 138.83 15.092C139.094 15.164 139.364 15.2 139.64 15.2C140.18 15.2 140.624 15.08 140.972 14.84C141.332 14.588 141.614 14.276 141.818 13.904L143.78 14.876ZM141.638 11.456C141.626 11.3 141.572 11.126 141.476 10.934C141.392 10.742 141.26 10.562 141.08 10.394C140.912 10.226 140.696 10.088 140.432 9.98C140.18 9.872 139.874 9.818 139.514 9.818C139.01 9.818 138.566 9.962 138.182 10.25C137.798 10.538 137.528 10.94 137.372 11.456H141.638Z" fill="black"/>
</svg>
